<?xml version="1.0" encoding="utf-8"?>
<!-- Generator: Adobe Illustrator 26.0.1, SVG Export Plug-In . SVG Version: 6.00 Build 0)  -->
<svg version="1.1" id="Ebene_1" xmlns="http://www.w3.org/2000/svg" xmlns:xlink="http://www.w3.org/1999/xlink" x="0px" y="0px"
	 viewBox="0 0 661 518" style="enable-background:new 0 0 661 518;" xml:space="preserve">
<g>
	<path d="M392.87,234.5v-70.42h31.74c3.31,0,6.36,0.69,9.17,2.08s5.24,3.21,7.29,5.46c2.05,2.25,3.65,4.79,4.81,7.64
		c1.16,2.84,1.74,5.72,1.74,8.63c0,2.18-0.27,4.28-0.79,6.3c-0.53,2.02-1.29,3.92-2.28,5.7c-0.99,1.79-2.2,3.39-3.62,4.81
		c-1.42,1.42-3.03,2.63-4.81,3.62l15.47,26.19h-18.35l-13.49-22.71h-10.61v22.71H392.87z M409.14,197.6h14.88
		c1.92,0,3.57-0.91,4.96-2.73c1.39-1.82,2.08-4.15,2.08-6.99c0-2.91-0.79-5.22-2.38-6.94c-1.59-1.72-3.31-2.58-5.16-2.58h-14.38
		V197.6z"/>
	<path d="M477.28,235.49c-5.36,0-9.41-1.67-12.15-5.01c-2.75-3.34-4.12-8.25-4.12-14.73v-33.33h15.87v29.85
		c0,3.18,0.63,5.6,1.88,7.29c1.26,1.69,3.04,2.53,5.35,2.53c2.12,0,4.17-0.56,6.15-1.69c1.98-1.12,3.73-3.08,5.26-5.85v-32.14h15.87
		v34.22c0,1.59,0.25,2.69,0.74,3.32c0.5,0.63,1.37,1.01,2.63,1.14v13.39c-1.52,0.33-2.81,0.55-3.87,0.65
		c-1.06,0.1-2.02,0.15-2.87,0.15c-5.69,0-8.93-2.22-9.72-6.65l-0.3-3.17c-2.38,3.44-5.34,5.97-8.88,7.59
		S481.64,235.49,477.28,235.49z"/>
	<path d="M558.81,235.49c-3.97,0-7.44-0.84-10.41-2.53c-2.98-1.69-5.32-4.05-7.04-7.09v8.63h-13.79v-72.41h15.87v28.86
		c1.72-2.98,4.02-5.31,6.89-6.99c2.88-1.69,6.27-2.53,10.17-2.53c3.31,0,6.35,0.71,9.13,2.13c2.78,1.42,5.16,3.36,7.14,5.8
		c1.98,2.45,3.54,5.34,4.66,8.68c1.12,3.34,1.69,6.89,1.69,10.66c0,3.77-0.61,7.29-1.83,10.56c-1.22,3.27-2.93,6.12-5.11,8.53
		c-2.18,2.41-4.76,4.3-7.74,5.65C565.46,234.81,562.25,235.49,558.81,235.49z M554.35,222.1c1.85,0,3.54-0.35,5.06-1.04
		c1.52-0.69,2.83-1.64,3.92-2.83c1.09-1.19,1.95-2.59,2.58-4.22c0.63-1.62,0.94-3.39,0.94-5.31c0-1.85-0.3-3.62-0.89-5.31
		c-0.59-1.69-1.4-3.16-2.43-4.41c-1.03-1.26-2.27-2.25-3.72-2.98c-1.45-0.73-3.01-1.09-4.66-1.09c-2.51,0-4.81,0.86-6.89,2.58
		c-2.08,1.72-3.69,3.87-4.81,6.45v10.91c1.06,2.25,2.59,4.02,4.61,5.31C550.06,221.45,552.16,222.1,554.35,222.1z"/>
	<path d="M592.93,242.33c1.32,0.46,2.56,0.79,3.72,0.99c1.15,0.2,2.2,0.3,3.12,0.3c1.92,0,3.41-0.66,4.46-1.98
		c1.06-1.32,2.02-3.7,2.88-7.14l-19.84-52.07h16.37l12.1,38.48l10.41-38.48h14.88l-19.84,60.5c-1.39,4.3-3.87,7.79-7.44,10.46
		c-3.57,2.68-7.8,4.02-12.7,4.02c-1.32,0-2.66-0.12-4.02-0.35c-1.36-0.23-2.73-0.61-4.11-1.14V242.33z"/>
</g>
<g>
	<path d="M363.39,25.24c26.99,3.82,15.94,30.47,28.35,45.93c4.69,9.54,19.11,27.68,13.15,37.96c-2.19,3.78-6.1,14.85-9.12,7.03
		c3.94-13.65-2.33-25.7-9.73-37.06c-0.29-8.06-2.49-17.23-4.81-26.04c0.61,14.1,7.08,44.25,8.31,65.52
		c-6.78,18.72-6.23-17.96-14.41-22.82c1.82-11.69-11.94-10.98-14.52-19.01c0.66-3.56,7.05-2.25,8.29-4.82
		c3.82-7.97,0.8-22.93,0.8-22.93s-20.24,22.08-20.49,34.01c-3.23,28.28-25.83,3.41-29.69,17.18c-3.25,11.57,14.61,17.61,16.93,25.31
		c3.28,7.94-19.86-1.8-11.72,17.85c-7.98,7.27,5.72,7.71,10.62,24.04c0.76,2.55,4.13,13.79,4.87,16.31
		c3.18,10.91-0.13,22.48-2.06,33.56c-1.56,17.15,12.42,16.85-0.36,35.36c-1.43,2.07-6.76,8.37-11.2,13.53
		c-9.9,11.5-22.53,2.74-21.54,16.38c0.11,1.46,2.25,3.08,3.5,4.77c1.8,2.43-3.19,7.17-2.62,12.45c2.8,25.87-7.73-8.02-14.17,6.73
		c1.88,2.49,8.73,2.61,7.34,8.11c-1.7,3.92-8.94-4.01-9.07,2.65c-3.63,13.88-0.56,28.02-4.13,41.97c-1.36,5.13-7.73,1.82-9.17,8.73
		c-1.53,7.36,4.48,24.56,5.05,26.63c2.36,8.73,7.68,14.48,4.68,23.14c-0.49,3.31-7.38,3.8-2.04,7.06c5.32,0.93,5.62,23.33,1,32.83
		c-1.91,3.94-9.31,12.66-5.38,18.88c3.22,6.84-8.62,13.3-4.52,20.38c1.49,1.38,0.54,4.3-1.29,4.76
		c-44.14-74.13,10.6-162.92,10.06-242.48c11.1-48.22,29.06-95.99,18.02-146.35c-6.04-14.61,0.65-20.67-8.96-33.66
		C306.16,65.28,336.27,21.39,363.39,25.24z"/>
	<path d="M360.49,221.4c-9.21,0.45-8.38,5.12-10.33,12.67c-7.26-2.84-8.46-22.56-3.43-28.02c8.36-8.44,9.7-8.5,13.58,3.39
		C360.51,213.04,364.1,219.23,360.49,221.4"/>
</g>
<g>
	<path d="M86.52,164.07v70.42h-5.06v-33.72H37.02v33.72h-5.06v-70.42h5.06v32.14h44.43v-32.14H86.52z"/>
	<path d="M118.35,235.49c-2.38,0-4.6-0.41-6.64-1.24c-2.05-0.83-3.85-1.95-5.41-3.37c-1.55-1.42-2.76-3.11-3.62-5.06
		c-0.86-1.95-1.29-4.05-1.29-6.3c0-2.25,0.53-4.3,1.59-6.15c1.06-1.85,2.53-3.45,4.41-4.81c1.88-1.35,4.15-2.41,6.8-3.17
		c2.64-0.76,5.55-1.14,8.73-1.14c2.78,0,5.57,0.25,8.38,0.74c2.81,0.5,5.34,1.17,7.59,2.03v-5.06c0-4.89-1.39-8.78-4.17-11.65
		c-2.78-2.87-6.55-4.31-11.31-4.31c-2.51,0-5.17,0.53-7.98,1.59c-2.81,1.06-5.67,2.58-8.58,4.56l-1.88-3.37
		c6.61-4.5,12.89-6.75,18.85-6.75c6.21,0,11.11,1.8,14.68,5.41c3.57,3.6,5.35,8.58,5.35,14.93v25.19c0,1.65,0.73,2.48,2.18,2.48
		v4.46c-0.33,0.07-0.68,0.11-1.04,0.15c-0.36,0.03-0.68,0.05-0.94,0.05c-1.32,0-2.38-0.45-3.18-1.34c-0.79-0.89-1.26-1.97-1.39-3.22
		v-4.26c-2.38,3.11-5.42,5.49-9.13,7.14C126.65,234.66,122.65,235.49,118.35,235.49z M119.35,231.52c3.83,0,7.36-0.73,10.56-2.18
		c3.21-1.45,5.67-3.37,7.39-5.75c1.06-1.39,1.59-2.71,1.59-3.97v-9.12c-2.38-0.93-4.86-1.62-7.44-2.08
		c-2.58-0.46-5.26-0.69-8.03-0.69c-2.58,0-4.93,0.28-7.04,0.84c-2.12,0.56-3.93,1.34-5.46,2.33c-1.52,0.99-2.69,2.2-3.52,3.62
		c-0.83,1.42-1.24,2.99-1.24,4.71c0,1.72,0.33,3.34,0.99,4.86c0.66,1.52,1.59,2.83,2.78,3.92c1.19,1.09,2.59,1.95,4.22,2.58
		C115.76,231.21,117.49,231.52,119.35,231.52z"/>
	<path d="M176.77,235.49c-10.98,0-16.46-7.6-16.46-22.81v-29.76h4.96v29.06c0,12.69,4.33,19.04,12.99,19.04
		c2.18,0,4.3-0.38,6.35-1.14c2.05-0.76,3.97-1.82,5.75-3.17c1.79-1.35,3.36-2.99,4.71-4.91c1.36-1.92,2.43-4.03,3.22-6.35v-32.53
		h4.96v44.63c0,1.65,0.7,2.48,2.08,2.48v4.46c-0.33,0.07-0.63,0.1-0.89,0.1c-0.27,0-0.46,0-0.59,0c-1.33,0-2.5-0.41-3.52-1.24
		c-1.03-0.83-1.54-1.93-1.54-3.32v-7.74c-2.25,4.17-5.34,7.41-9.27,9.72C185.58,234.33,181.34,235.49,176.77,235.49z"/>
	<path d="M237.27,235.49c-3.97,0-7.77-0.66-11.41-1.98c-3.64-1.32-6.81-3.3-9.52-5.95l2.48-3.37c2.78,2.51,5.65,4.36,8.63,5.55
		c2.98,1.19,6.25,1.79,9.82,1.79c4.5,0,8.12-0.94,10.86-2.83c2.74-1.88,4.12-4.51,4.12-7.89c0-1.59-0.35-2.93-1.04-4.02
		s-1.74-2.02-3.12-2.78c-1.39-0.76-3.11-1.44-5.16-2.03c-2.05-0.6-4.43-1.22-7.14-1.88c-2.91-0.66-5.44-1.32-7.59-1.98
		c-2.15-0.66-3.92-1.45-5.31-2.38c-1.39-0.93-2.43-2.05-3.12-3.37c-0.7-1.32-1.04-3.01-1.04-5.06c0-2.58,0.5-4.83,1.49-6.75
		c0.99-1.92,2.36-3.5,4.12-4.76c1.75-1.26,3.77-2.2,6.05-2.83c2.28-0.63,4.71-0.94,7.29-0.94c4.03,0,7.6,0.68,10.71,2.03
		c3.11,1.36,5.52,3.09,7.24,5.21l-2.78,2.68c-1.72-1.98-3.95-3.47-6.7-4.46c-2.75-0.99-5.67-1.49-8.78-1.49
		c-1.92,0-3.72,0.2-5.41,0.59c-1.69,0.4-3.16,1.03-4.41,1.88c-1.26,0.86-2.25,1.97-2.98,3.32c-0.73,1.36-1.09,2.96-1.09,4.81
		c0,1.52,0.25,2.74,0.74,3.67c0.5,0.93,1.29,1.72,2.38,2.38c1.09,0.66,2.5,1.24,4.22,1.74s3.77,1.04,6.15,1.64
		c3.24,0.79,6.12,1.55,8.63,2.28c2.51,0.73,4.61,1.62,6.3,2.68c1.69,1.06,2.98,2.31,3.87,3.77c0.89,1.45,1.34,3.31,1.34,5.55
		c0,4.63-1.8,8.32-5.4,11.06C248.1,234.12,243.29,235.49,237.27,235.49z"/>
</g>
</svg>
